<?xml version="1.0" standalone="no"?>
<!DOCTYPE svg PUBLIC "-//W3C//DTD SVG 20010904//EN"
 "http://www.w3.org/TR/2001/REC-SVG-20010904/DTD/svg10.dtd">
<svg version="1.0" xmlns="http://www.w3.org/2000/svg"
 width="93.000000pt" height="93.000000pt" viewBox="0 0 93.000000 93.000000"
 preserveAspectRatio="xMidYMid meet">
<metadata>
Created by potrace 1.14, written by Peter Selinger 2001-2017
</metadata>
<g transform="translate(0.000000,93.000000) scale(0.100000,-0.100000)"
fill="#000000" stroke="none">
<path d="M140 725 c0 -22 4 -25 35 -25 33 0 38 -4 55 -42 11 -24 20 -50 20
-59 0 -9 -32 -88 -70 -175 -38 -87 -70 -159 -70 -161 0 -2 13 -3 29 -3 27 0
31 7 80 123 28 67 51 129 51 137 0 32 19 -10 54 -116 45 -137 58 -156 99 -152
24 2 33 8 35 25 2 16 -3 22 -20 25 -19 3 -29 21 -65 123 -24 66 -55 154 -70
195 -34 95 -67 130 -122 130 -37 0 -41 -2 -41 -25z"/>
<path d="M520 430 l0 -170 29 0 29 0 4 125 c3 141 13 161 80 172 30 4 41 1 62
-20 25 -25 26 -30 26 -152 l0 -125 31 0 31 0 -4 141 -3 141 -33 29 c-27 24
-41 29 -86 29 -44 0 -60 -5 -85 -26 l-31 -26 0 26 c0 21 -5 26 -25 26 l-25 0
0 -170z"/>
</g>
</svg>
